<mxfile host="Electron" modified="2023-10-20T06:38:19.098Z" agent="Mozilla/5.0 (Macintosh; Intel Mac OS X 10_15_7) AppleWebKit/537.36 (KHTML, like Gecko) draw.io/22.0.3 Chrome/114.0.5735.289 Electron/25.8.4 Safari/537.36" etag="qYjAZx28RsRaqNpE7R-X" version="22.0.3" type="device">
  <diagram name="Page-1" id="3Q-LbEHVJOaq68SksGJE">
    <mxGraphModel dx="743" dy="616" grid="1" gridSize="10" guides="1" tooltips="1" connect="1" arrows="1" fold="1" page="1" pageScale="1" pageWidth="827" pageHeight="1169" math="0" shadow="0">
      <root>
        <mxCell id="0" />
        <mxCell id="1" parent="0" />
        <mxCell id="ukIgn9faSReTf4egBqfW-1" value="" style="rounded=0;whiteSpace=wrap;html=1;" vertex="1" parent="1">
          <mxGeometry x="70" y="530" width="680" height="140" as="geometry" />
        </mxCell>
        <mxCell id="ukIgn9faSReTf4egBqfW-2" value="gabelstapler apps" style="rounded=0;whiteSpace=wrap;html=1;" vertex="1" parent="1">
          <mxGeometry x="70" y="300" width="120" height="60" as="geometry" />
        </mxCell>
        <mxCell id="ukIgn9faSReTf4egBqfW-4" value="&lt;font color=&quot;#1a1a1a&quot;&gt;Grafana Pyroscope&lt;/font&gt;" style="rounded=0;whiteSpace=wrap;html=1;fillColor=#fff2cc;strokeColor=#d6b656;" vertex="1" parent="1">
          <mxGeometry x="440" y="340" width="120" height="60" as="geometry" />
        </mxCell>
        <mxCell id="ukIgn9faSReTf4egBqfW-5" value="&lt;div&gt;push profiles&lt;/div&gt;" style="rounded=0;whiteSpace=wrap;html=1;" vertex="1" parent="1">
          <mxGeometry x="110" y="350" width="130" height="40" as="geometry" />
        </mxCell>
        <mxCell id="ukIgn9faSReTf4egBqfW-6" value="" style="edgeStyle=orthogonalEdgeStyle;rounded=0;orthogonalLoop=1;jettySize=auto;html=1;entryX=0;entryY=0.5;entryDx=0;entryDy=0;exitX=1;exitY=0.5;exitDx=0;exitDy=0;" edge="1" parent="1" source="ukIgn9faSReTf4egBqfW-5" target="ukIgn9faSReTf4egBqfW-4">
          <mxGeometry relative="1" as="geometry">
            <mxPoint x="190" y="340" as="sourcePoint" />
            <mxPoint x="375" y="370" as="targetPoint" />
            <Array as="points" />
          </mxGeometry>
        </mxCell>
        <mxCell id="ukIgn9faSReTf4egBqfW-13" value="" style="edgeStyle=orthogonalEdgeStyle;rounded=0;orthogonalLoop=1;jettySize=auto;html=1;entryX=1;entryY=0.5;entryDx=0;entryDy=0;exitX=0.5;exitY=0;exitDx=0;exitDy=0;" edge="1" parent="1" source="ukIgn9faSReTf4egBqfW-22" target="ukIgn9faSReTf4egBqfW-4">
          <mxGeometry relative="1" as="geometry">
            <mxPoint x="670" y="570" as="sourcePoint" />
            <mxPoint x="680" y="330" as="targetPoint" />
            <Array as="points">
              <mxPoint x="670" y="370" />
            </Array>
          </mxGeometry>
        </mxCell>
        <mxCell id="ukIgn9faSReTf4egBqfW-14" value="obj. storage" style="shape=cylinder3;whiteSpace=wrap;html=1;boundedLbl=1;backgroundOutline=1;size=15;" vertex="1" parent="1">
          <mxGeometry x="470" y="440" width="60" height="80" as="geometry" />
        </mxCell>
        <mxCell id="ukIgn9faSReTf4egBqfW-17" value="" style="edgeStyle=orthogonalEdgeStyle;rounded=0;orthogonalLoop=1;jettySize=auto;html=1;entryX=0.5;entryY=0;entryDx=0;entryDy=0;entryPerimeter=0;" edge="1" parent="1" target="ukIgn9faSReTf4egBqfW-14">
          <mxGeometry relative="1" as="geometry">
            <mxPoint x="500" y="400" as="sourcePoint" />
            <mxPoint x="570" y="380" as="targetPoint" />
            <Array as="points">
              <mxPoint x="500" y="400" />
            </Array>
          </mxGeometry>
        </mxCell>
        <mxCell id="ukIgn9faSReTf4egBqfW-18" value="" style="edgeStyle=orthogonalEdgeStyle;rounded=0;orthogonalLoop=1;jettySize=auto;html=1;entryX=1;entryY=0.5;entryDx=0;entryDy=0;exitX=0;exitY=0.5;exitDx=0;exitDy=0;" edge="1" parent="1" source="ukIgn9faSReTf4egBqfW-22">
          <mxGeometry relative="1" as="geometry">
            <mxPoint x="610" y="600" as="sourcePoint" />
            <mxPoint x="235" y="600" as="targetPoint" />
            <Array as="points">
              <mxPoint x="600" y="600" />
              <mxPoint x="600" y="600" />
            </Array>
          </mxGeometry>
        </mxCell>
        <mxCell id="ukIgn9faSReTf4egBqfW-19" value="&lt;div&gt;monitoring&lt;/div&gt;&lt;div&gt;stack&lt;br&gt;&lt;/div&gt;" style="text;html=1;strokeColor=none;fillColor=none;align=center;verticalAlign=middle;whiteSpace=wrap;rounded=0;" vertex="1" parent="1">
          <mxGeometry x="70" y="530" width="680" height="30" as="geometry" />
        </mxCell>
        <mxCell id="ukIgn9faSReTf4egBqfW-22" value="" style="shape=image;verticalLabelPosition=bottom;labelBackgroundColor=default;verticalAlign=top;aspect=fixed;imageAspect=0;image=https://upload.wikimedia.org/wikipedia/commons/thumb/a/a1/Grafana_logo.svg/800px-Grafana_logo.svg.png;" vertex="1" parent="1">
          <mxGeometry x="625.94" y="555" width="88.13" height="90" as="geometry" />
        </mxCell>
        <mxCell id="ukIgn9faSReTf4egBqfW-26" value="" style="shape=image;verticalLabelPosition=bottom;labelBackgroundColor=default;verticalAlign=top;aspect=fixed;imageAspect=0;image=https://dbdb.io/media/logos/prometheus_7OR7lOu.svg;" vertex="1" parent="1">
          <mxGeometry x="90" y="552.9200000000001" width="170" height="92.08" as="geometry" />
        </mxCell>
        <mxCell id="ukIgn9faSReTf4egBqfW-27" value="" style="shape=image;verticalLabelPosition=bottom;labelBackgroundColor=default;verticalAlign=top;aspect=fixed;imageAspect=0;image=https://careers.gocity.com/assets/img/tech-stack/platform/thanos.png;" vertex="1" parent="1">
          <mxGeometry x="335" y="602.5" width="170" height="42.5" as="geometry" />
        </mxCell>
        <mxCell id="ukIgn9faSReTf4egBqfW-28" value="" style="shape=image;verticalLabelPosition=bottom;labelBackgroundColor=default;verticalAlign=top;aspect=fixed;imageAspect=0;image=https://grafana.com/static/img/pyroscope-logo.svg;" vertex="1" parent="1">
          <mxGeometry x="420" y="375.67" width="32" height="43.41" as="geometry" />
        </mxCell>
        <mxCell id="ukIgn9faSReTf4egBqfW-29" value="&lt;font color=&quot;#1a1a1a&quot;&gt;SDK&lt;/font&gt;" style="rounded=0;whiteSpace=wrap;html=1;fillColor=#fff2cc;strokeColor=#d6b656;" vertex="1" parent="1">
          <mxGeometry x="90" y="377.26" width="40" height="25" as="geometry" />
        </mxCell>
        <mxCell id="ukIgn9faSReTf4egBqfW-30" value="" style="shape=image;verticalLabelPosition=bottom;labelBackgroundColor=default;verticalAlign=top;aspect=fixed;imageAspect=0;image=https://grafana.com/static/img/pyroscope-logo.svg;" vertex="1" parent="1">
          <mxGeometry x="118.56" y="392.26" width="17.26" height="23.41" as="geometry" />
        </mxCell>
      </root>
    </mxGraphModel>
  </diagram>
</mxfile>
